<?xml version="1.0" encoding="iso-8859-1"?>
<!-- Generator: Adobe Illustrator 19.0.0, SVG Export Plug-In . SVG Version: 6.00 Build 0)  -->
<svg version="1.1" id="Layer_1" xmlns="http://www.w3.org/2000/svg" xmlns:xlink="http://www.w3.org/1999/xlink" x="0px" y="0px"
	 viewBox="0 0 335.941 335.941" style="enable-background:new 0 0 335.941 335.941;" xml:space="preserve">
<g>
	<g>
		<g>
			<path d="M110.023,64.265l41.795,43.442c8.832,9.18,23.48,9.175,32.306,0.001l41.796-43.443c0.097-0.102,0.191-0.204,0.281-0.31
				c22.564-24.08,5.57-63.859-27.624-63.955c-12.594-0.019-23.624,5.97-30.606,15.318C160.942,5.906,149.895,0,137.476,0
				c-0.037,0-0.074,0-0.111,0c-33.163,0.096-50.217,39.85-27.619,63.961C109.836,64.065,109.928,64.165,110.023,64.265z M137.409,15
				c0.023,0,0.045,0,0.067,0c12.712,0,22.997,10.287,22.997,22.996c0,4.143,3.358,7.5,7.5,7.5c4.142,0,7.5-3.357,7.5-7.5
				C175.473,25.283,185.76,15,198.47,15c0.022,0,0.044,0,0.067,0c20.179,0.059,30.462,24.327,16.551,38.879
				c-0.077,0.08-0.151,0.161-0.224,0.244l-41.548,43.186c-2.923,3.038-7.766,3.034-10.686-0.001l-41.553-43.19
				c-0.071-0.08-0.144-0.16-0.218-0.238C106.928,39.308,117.265,15.059,137.409,15z"/>
			<path d="M286.688,224.574c-11.129-6.923-103.776-64.556-114.755-71.386c-2.425-1.51-5.498-1.51-7.923,0
				c-14.242,8.859-100.221,62.344-114.755,71.386c-3.517,2.188-4.595,6.813-2.407,10.33c2.19,3.521,6.818,4.592,10.329,2.406
				l12.797-7.961v99.092c0,4.143,3.358,7.5,7.5,7.5h67.978c4.142,0,7.5-3.357,7.5-7.5v-52.259h30.036v52.259
				c0,4.143,3.358,7.5,7.5,7.5h67.978c4.142,0,7.5-3.357,7.5-7.5V229.35c13.856,8.62,13.968,9.094,16.751,9.094
				C290.224,238.443,293.089,228.555,286.688,224.574z M137.954,320.941H84.976v-12.715h52.978V320.941z M250.968,320.941H197.99
				v-12.715h52.978V320.941z M250.968,293.227H197.99v-24.544c0-4.143-3.358-7.5-7.5-7.5h-45.036c-4.142,0-7.5,3.357-7.5,7.5v24.544
				H84.976v-73.208l82.996-51.629c9.691,6.029,74.597,46.404,82.996,51.629V293.227z"/>
		</g>
	</g>
</g>
<g>
</g>
<g>
</g>
<g>
</g>
<g>
</g>
<g>
</g>
<g>
</g>
<g>
</g>
<g>
</g>
<g>
</g>
<g>
</g>
<g>
</g>
<g>
</g>
<g>
</g>
<g>
</g>
<g>
</g>
</svg>
