<?xml version="1.0" encoding="UTF-8"?>
<svg xmlns="http://www.w3.org/2000/svg" xmlns:xlink="http://www.w3.org/1999/xlink" viewBox="0 0 256 256" width="256px" height="256px">
<g id="surface186004175">
<path style=" stroke:none;fill-rule:nonzero;fill:rgb(100%,100%,100%);fill-opacity:1;" d="M 208.5625 31.96875 C 205.875 32.09375 203.34375 32.875 201.09375 33.75 L 201.0625 33.75 C 198.78125 34.65625 187.9375 39.21875 171.46875 46.125 C 155 53.0625 133.625 62.0625 112.40625 71 C 70.03125 88.84375 28.375 106.40625 28.375 106.40625 L 28.875 106.21875 C 28.875 106.21875 26 107.15625 23 109.21875 C 21.46875 110.21875 19.78125 111.59375 18.3125 113.75 C 16.84375 115.90625 15.65625 119.21875 16.09375 122.625 C 16.8125 128.40625 20.5625 131.875 23.25 133.78125 C 25.96875 135.71875 28.5625 136.625 28.5625 136.625 L 28.625 136.625 L 67.6875 149.78125 C 69.4375 155.40625 79.59375 188.78125 82.03125 196.46875 C 83.46875 201.0625 84.875 203.9375 86.625 206.125 C 87.46875 207.25 88.46875 208.1875 89.65625 208.9375 C 90.125 209.21875 90.625 209.4375 91.125 209.625 C 91.28125 209.71875 91.4375 209.75 91.625 209.78125 L 91.21875 209.6875 C 91.34375 209.71875 91.4375 209.8125 91.53125 209.84375 C 91.84375 209.9375 92.0625 209.96875 92.46875 210.03125 C 98.65625 211.90625 103.625 208.0625 103.625 208.0625 L 103.90625 207.84375 L 126.96875 186.84375 L 165.625 216.5 L 166.5 216.875 C 174.5625 220.40625 182.71875 218.4375 187.03125 214.96875 C 191.375 211.46875 193.0625 207 193.0625 207 L 193.34375 206.28125 L 223.21875 53.25 C 224.0625 49.46875 224.28125 45.9375 223.34375 42.5 C 222.40625 39.0625 220 35.84375 217.09375 34.125 C 214.15625 32.375 211.25 31.84375 208.5625 31.96875 Z M 207.75 48.375 C 207.71875 48.875 207.8125 48.8125 207.59375 49.78125 L 207.59375 49.875 L 178 201.3125 C 177.875 201.53125 177.65625 202 177.0625 202.46875 C 176.4375 202.96875 175.9375 203.28125 173.34375 202.25 L 126.0625 166 L 97.5 192.03125 L 103.5 153.71875 C 103.5 153.71875 177.5625 84.6875 180.75 81.71875 C 183.9375 78.75 182.875 78.125 182.875 78.125 C 183.09375 74.5 178.0625 77.0625 178.0625 77.0625 L 80.65625 137.40625 L 80.625 137.25 L 33.9375 121.53125 L 33.9375 121.5 C 33.90625 121.5 33.84375 121.46875 33.8125 121.46875 C 33.84375 121.46875 34.0625 121.375 34.0625 121.375 L 34.3125 121.25 L 34.5625 121.15625 C 34.5625 121.15625 76.25 103.59375 118.625 85.75 C 139.84375 76.8125 161.21875 67.8125 177.65625 60.875 C 194.09375 53.96875 206.25 48.90625 206.9375 48.625 C 207.59375 48.375 207.28125 48.375 207.75 48.375 Z M 207.75 48.375 "/>
</g>
</svg>
